<svg width="21" height="21" viewBox="0 0 21 21" fill="none" xmlns="http://www.w3.org/2000/svg">
<g clip-path="url(#clip0_121_5698)">
<path d="M2.64788 2.80859H17.9023C18.1271 2.80859 18.3426 2.89788 18.5016 3.05681C18.6605 3.21574 18.7498 3.4313 18.7498 3.65606V17.2155C18.7498 17.4403 18.6605 17.6559 18.5016 17.8148C18.3426 17.9737 18.1271 18.063 17.9023 18.063H2.64788C2.42312 18.063 2.20756 17.9737 2.04863 17.8148C1.8897 17.6559 1.80042 17.4403 1.80042 17.2155V3.65606C1.80042 3.4313 1.8897 3.21574 2.04863 3.05681C2.20756 2.89788 2.42312 2.80859 2.64788 2.80859ZM17.0548 6.40016L10.3361 12.4172L3.49535 6.38152V16.3681H17.0548V6.40016ZM3.92841 4.50353L10.3268 10.1494L16.6328 4.50353H3.92841Z" fill="white"/>
</g>
<defs>
<clipPath id="clip0_121_5698">
<rect width="20.3392" height="20.3392" fill="white" transform="translate(0.105469 0.266602)"/>
</clipPath>
</defs>
</svg>
