<svg width="21" height="22" viewBox="0 0 21 22" fill="none" xmlns="http://www.w3.org/2000/svg">
<g clip-path="url(#clip0_121_5706)">
<path d="M16.2073 9.42134H17.0548C17.2795 9.42134 17.4951 9.51063 17.654 9.66956C17.813 9.82849 17.9022 10.044 17.9022 10.2688V18.7435C17.9022 18.9682 17.813 19.1838 17.654 19.3427C17.4951 19.5017 17.2795 19.591 17.0548 19.591H3.49529C3.27053 19.591 3.05498 19.5017 2.89604 19.3427C2.73711 19.1838 2.64783 18.9682 2.64783 18.7435V10.2688C2.64783 10.044 2.73711 9.82849 2.89604 9.66956C3.05498 9.51063 3.27053 9.42134 3.49529 9.42134H4.34276V8.57387C4.34276 7.79484 4.49621 7.02343 4.79433 6.30369C5.09245 5.58396 5.52942 4.92999 6.08029 4.37912C6.63115 3.82826 7.28512 3.39129 8.00485 3.09317C8.72459 2.79504 9.496 2.6416 10.275 2.6416C11.0541 2.6416 11.8255 2.79504 12.5452 3.09317C13.265 3.39129 13.9189 3.82826 14.4698 4.37912C15.0206 4.92999 15.4576 5.58396 15.7557 6.30369C16.0539 7.02343 16.2073 7.79484 16.2073 8.57387V9.42134ZM4.34276 11.1163V17.896H16.2073V11.1163H4.34276ZM9.42757 12.8112H11.1225V16.2011H9.42757V12.8112ZM14.5124 9.42134V8.57387C14.5124 7.45006 14.0659 6.37228 13.2713 5.57762C12.4766 4.78297 11.3988 4.33654 10.275 4.33654C9.15122 4.33654 8.07344 4.78297 7.27879 5.57762C6.48413 6.37228 6.0377 7.45006 6.0377 8.57387V9.42134H14.5124Z" fill="white"/>
</g>
<defs>
<clipPath id="clip0_121_5706">
<rect width="20.3392" height="20.3392" fill="white" transform="translate(0.105469 0.946289)"/>
</clipPath>
</defs>
</svg>
