<svg width="226" height="106" viewBox="0 0 226 106" fill="none" xmlns="http://www.w3.org/2000/svg">
<path d="M84.7316 0.763741C84.8056 1.17289 85.0525 2.86404 85.2993 4.47337L85.7189 7.41924L91.0501 13.1201C93.9625 16.2569 96.3072 18.8754 96.2332 18.9572C96.1838 19.0118 86.2618 20.9212 74.1679 23.1851C62.0987 25.4491 51.8805 27.3857 51.5103 27.4676C50.8439 27.6312 50.9179 27.3857 54.1759 20.212L57.5326 12.7927L56.9896 9.13766C56.6934 7.11919 56.3725 5.4826 56.2738 5.4826C56.1998 5.4826 50.7205 11.4562 44.1305 18.7936C33.5915 30.468 32.1106 32.2137 31.9625 33.1138C31.8391 33.8503 32.16 36.6598 33.1226 42.797C33.9864 48.4978 34.3566 51.4983 34.1839 51.6074C34.0605 51.7165 33.3447 51.8529 32.6289 51.9347C29.8646 52.2893 27.0016 54.4169 25.7922 57.0354C24.3113 60.2541 24.3113 60.1722 24.3113 76.5382C24.3113 92.6314 24.336 93.0678 25.5947 95.9046C27.3718 99.8597 30.4323 101.442 35.7388 101.142L38.5772 100.978L41.3909 103.433C42.9458 104.797 44.3527 105.942 44.5007 105.997C44.6735 106.051 45.3646 105.37 46.031 104.442C46.7221 103.542 47.5613 102.396 47.9315 101.905L48.6226 101.005L46.1544 98.905C44.7969 97.7321 43.6863 96.7774 43.6863 96.7229C43.6863 96.6956 43.9578 95.9591 44.2786 95.059C45.3399 92.1677 45.4633 90.0947 45.3646 75.038L45.2906 60.9905L44.6488 58.9993C44.3033 57.9355 44.0812 57.0354 44.1552 57.0354C44.2292 57.0354 45.5867 56.7899 47.1417 56.4899C48.6966 56.1898 50.0541 55.9443 50.1775 55.9443C50.2762 55.9443 50.3503 63.9909 50.3503 73.8105C50.3503 86.0305 50.449 92.1131 50.6218 93.0951C51.0413 95.25 51.7077 96.6956 52.8678 98.114C54.6202 100.214 57.0636 101.224 60.445 101.224C65.406 101.224 68.6393 98.9869 70.1448 94.5408C70.7125 92.9042 70.7125 92.8769 70.7865 72.6376L70.8606 52.3984H69.7993H68.7627L69.8733 51.6346C71.8232 50.2435 73.0819 48.0887 73.4275 45.5247C73.5262 44.7337 73.2794 42.5243 72.7117 38.7874C72.2181 35.7051 71.8725 33.1684 71.8972 33.1411C71.9959 33.032 77.722 31.9409 78.191 31.9409C78.5859 31.9409 78.734 32.5683 79.4497 37.178C80.5111 43.9699 81.1034 45.552 83.3001 47.2158C83.9171 47.6795 85.1018 48.2523 85.941 48.4706L87.4959 48.907L100.676 46.4248C109.216 44.8155 114.226 43.7517 114.991 43.3971C117.138 42.3333 118.767 40.0421 119.212 37.3962C119.434 36.087 119.31 34.8595 118.101 26.8947C117.336 21.9577 116.546 17.6207 116.349 17.2934C116.176 16.9661 115.189 16.2296 114.226 15.6841C112.103 14.5112 86.6567 0.981956 85.4227 0.381866L84.5835 0L84.7316 0.763741ZM113.387 29.6224C114.053 33.9048 114.522 37.5599 114.448 37.7781C114.374 37.9963 114.004 38.2418 113.609 38.3236C110.376 39.0601 86.4593 43.3971 86.0397 43.3425C85.5708 43.2607 85.4474 42.7152 84.3614 35.896C83.7197 31.8318 83.2013 28.204 83.2013 27.8222L83.1767 27.1402L96.9489 24.5217C104.501 23.076 111.042 21.9031 111.462 21.8758L112.227 21.8486L113.387 29.6224ZM67.5039 38.3509C68.3184 43.588 68.6393 46.4521 68.4912 46.643C68.3431 46.7794 61.9259 48.0614 54.2006 49.5071C42.6743 51.6892 40.1074 52.0983 39.8606 51.7983C39.5398 51.4164 37.0963 36.1415 37.3184 35.896C37.4172 35.7869 64.8877 30.468 66.023 30.3316C66.1958 30.3043 66.8128 33.6321 67.5039 38.3509ZM63.9251 91.3221C63.6042 93.0133 62.8391 93.9952 61.531 94.3771C59.6305 94.9499 57.7794 93.8043 57.2611 91.704C57.113 91.1039 57.0143 83.9029 57.0143 72.6649V54.6351L58.6926 54.335C59.6058 54.1441 61.1854 53.8713 62.1974 53.6804L64.0485 53.3258L64.1225 71.6284C64.1719 84.2302 64.1225 90.3402 63.9251 91.3221ZM36.7754 58.9993C37.0716 59.1903 37.5406 59.7903 37.8367 60.3086C38.3797 61.2633 38.3797 61.2906 38.3797 76.5382V91.8131L37.8121 92.7951C37.1703 93.968 36.0844 94.5408 34.6035 94.5135C33.3694 94.4862 32.4315 93.8316 31.7157 92.4677C31.2468 91.5676 31.2221 90.9675 31.1481 77.1383C31.0987 67.8097 31.1727 62.3816 31.3455 61.6997C31.6664 60.3632 32.4562 59.2448 33.4188 58.7811C34.2826 58.3447 35.9856 58.4538 36.7754 58.9993Z" fill="#BE123C"/>
<path opacity="0.9" d="M97.0476 26.5947C94.6041 27.4676 93.0492 29.8679 93.0492 32.7592C93.0739 37.5054 97.3931 40.424 101.367 38.3782C104.156 36.9326 105.39 32.9774 103.983 29.8952C102.7 27.0857 99.6885 25.6673 97.0476 26.5947ZM99.96 31.3954C100.972 32.5137 100.133 34.6686 98.6766 34.6686C98.0842 34.6686 96.9982 33.4684 96.9982 32.8138C96.9982 31.2045 98.9481 30.2771 99.96 31.3954Z" fill="white"/>
<path opacity="0.9" d="M49.7332 35.3228C47.5366 36.3866 46.3025 38.5142 46.3025 41.2146C46.3025 47.9519 54.4227 50.1613 57.113 44.1604C58.6186 40.8054 57.3104 36.7685 54.2499 35.3774C53.1393 34.8591 50.7452 34.8318 49.7332 35.3228ZM53.2874 40.0144C53.5835 40.4235 53.8057 40.9691 53.8057 41.2691C53.8057 41.9237 52.7197 43.1239 52.1273 43.1239C51.3128 43.1239 50.3503 42.0874 50.3503 41.1873C50.3503 39.4143 52.3248 38.6505 53.2874 40.0144Z" fill="white"/>
<path d="M7.97212 51.852C5.2078 52.4794 3.30732 54.0614 2.09793 56.7072C0.839171 59.4622 0.394904 64.6447 1.08599 68.2452C1.80175 71.9549 3.25796 74.0552 8.14489 78.4194C12.6616 82.4291 13.5748 84.1748 13.5748 88.7573C13.5748 91.785 13.2293 93.1215 12.168 94.1308C10.6624 95.6037 8.34235 95.0309 7.40445 92.9306C7.00954 92.0032 6.91082 91.2394 6.91082 89.1391V86.4933H3.45541H0V88.1845C0.049363 97.5131 3.57882 101.659 11.0573 101.168C15.4013 100.868 18.0422 98.8223 19.4737 94.5399C20.5103 91.5122 20.6831 86.5206 19.9426 82.5382C19.2762 78.8831 17.0302 75.7463 12.0446 71.5457C10.5637 70.291 9.08279 68.7635 8.63852 68.0816C7.72531 66.6086 7.28104 64.3174 7.52786 62.0807C7.82403 59.0803 8.49043 58.1256 10.2428 58.1256C12.168 58.1256 12.7603 59.2167 13.0071 63.1718L13.1552 65.7631H16.4626H19.7452V64.3174C19.7452 59.8986 18.8073 56.189 17.203 54.3614C15.2778 52.1248 11.4769 51.0882 7.97212 51.852Z" fill="#BE123C"/>
<path opacity="0.9" d="M214.532 52.3443C211.348 53.6263 209.793 57.0359 209.793 62.9549C209.793 69.0921 210.879 71.3561 216.21 76.1295C218.974 78.6117 220.431 80.2756 221.146 81.8576C222.8 85.4308 222.751 93.2047 221.048 96.0414C220.258 97.378 219.098 97.9508 217.197 97.9508C215.47 97.9508 214.606 97.5417 213.544 96.2051C212.532 94.9504 212.236 93.7502 212.088 90.3679L211.94 87.5857H210.509H209.052V90.3679C209.052 97.678 211.644 100.979 217.296 100.979C219.32 100.979 219.665 100.924 221.097 100.078C222.923 99.0419 223.837 97.8417 224.651 95.3595C225.071 94.023 225.194 92.9319 225.293 89.4405C225.515 81.2302 224.478 78.8845 218.185 73.32C215.149 70.6196 213.742 68.8194 213.248 67.0464C212.458 64.1005 212.755 58.727 213.816 57.0086C215.321 54.581 218.135 54.1173 220.036 55.9721C221.146 57.0632 221.64 58.8907 221.64 61.8638V64.1278H223.294H224.923L224.774 61.4274C224.38 54.8265 222.454 52.2079 217.814 51.9352C216.309 51.8533 215.544 51.9624 214.532 52.3443Z" fill="white"/>
<path d="M80.832 52.7254C80.7826 52.9164 79.2277 63.4997 77.4012 76.2652C75.5501 89.0033 73.9952 99.7231 73.9211 100.05L73.7977 100.678H77.2531C79.1536 100.678 80.7085 100.596 80.7085 100.46C80.7085 100.35 81.0541 97.5136 81.449 94.1313C81.8686 90.7763 82.1894 87.9123 82.1894 87.8032C82.1894 87.6941 83.695 87.585 85.5214 87.585C88.7547 87.585 88.8534 87.6122 88.9769 88.185C89.1249 88.9488 90.5811 100.023 90.5811 100.405C90.5811 100.569 91.8399 100.678 94.0366 100.678C97.3439 100.678 97.492 100.65 97.492 100.132C97.492 99.6139 90.7292 54.3348 90.4577 52.9982C90.3343 52.3981 90.285 52.3981 85.6202 52.3981C82.0907 52.3981 80.906 52.4799 80.832 52.7254ZM85.9904 62.4905C86.1632 64.5089 87.7181 77.7381 88.0143 79.7293L88.1624 80.7658H85.6695C83.621 80.7658 83.1767 80.684 83.1767 80.3567C83.1767 80.1384 83.5469 76.7834 84.0159 72.9374C84.4848 69.0641 85.0031 64.4271 85.1759 62.6541C85.4968 59.19 85.7189 59.1354 85.9904 62.4905Z" fill="#BE123C"/>
<path d="M100.947 76.5107V100.678H104.279H107.611V89.8762V79.0747L109.685 79.1565C111.338 79.2383 111.857 79.3747 112.301 79.8111C113.584 81.0931 113.634 81.3659 113.782 90.9945C113.856 95.9589 114.004 100.159 114.127 100.35C114.251 100.569 115.238 100.678 117.509 100.678H120.717L120.569 99.3685C120.47 98.6593 120.322 94.2132 120.224 89.4943C120.051 81.4204 120.026 80.8204 119.483 79.5384C118.891 78.0381 118.2 77.1107 117.163 76.4015L116.497 75.9378L117.484 75.2014C119.705 73.5648 120.693 70.4552 120.693 64.9454C120.693 58.0717 119.138 54.7985 115.139 53.1619C113.782 52.6163 113.115 52.5618 107.315 52.4527L100.947 52.3436V76.5107ZM112.177 59.1627C113.634 60.1174 113.905 61.0994 113.905 65.4909C113.905 68.7914 113.831 69.6097 113.436 70.4825C112.696 72.1191 111.807 72.6646 109.561 72.801L107.611 72.9374V65.6273V58.3172L109.537 58.5081C110.598 58.6172 111.758 58.9172 112.177 59.1627Z" fill="#BE123C"/>
<path d="M125.629 76.5379V100.678H134.119H142.585L142.881 98.141C143.054 96.7772 143.251 95.2224 143.326 94.7587L143.449 93.8586L137.945 93.804L132.416 93.7222L132.342 86.1393L132.293 78.5837H137.106H141.919V75.1741V71.7645H137.106H132.293L132.342 65.5454L132.416 59.3537L137.427 59.2718L142.412 59.2173V55.8077V52.3981H134.021H125.629V76.5379Z" fill="#BE123C"/>
<path opacity="0.9" d="M153.272 76.4018V100.405H160.158H167.02L167.193 99.396C167.513 97.2412 167.982 97.4048 161.787 97.4048H156.234L156.283 86.8215L156.357 76.2655L161.368 76.1836L166.353 76.1291V74.6289V73.1287H161.294H156.234V64.4001V55.6716H161.541H166.847V54.035V52.3984H160.06H153.272V76.4018Z" fill="white"/>
<path opacity="0.9" d="M169.562 53.1349C169.685 53.5713 171.512 60.1177 173.634 67.7006L177.46 81.5026V90.9676V100.405H178.941H180.397L180.471 90.6402L180.57 80.9025L184.445 67.1278C186.592 59.5449 188.394 53.1349 188.468 52.8621C188.591 52.453 188.419 52.3984 186.987 52.3984C185.407 52.3984 185.383 52.3984 185.136 53.2713C184.716 54.7442 180.274 71.983 179.657 74.6289L179.089 77.0565L178.669 75.4472C178.447 74.547 177.361 70.3192 176.251 66.0367C175.165 61.7543 173.93 56.9536 173.486 55.317L172.696 52.3984H171.018H169.34L169.562 53.1349Z" fill="white"/>
<path opacity="0.9" d="M191.775 76.4018V100.405H198.686H205.572L205.72 99.3688C205.819 98.8232 205.942 98.1413 206.016 97.8685C206.115 97.4321 205.745 97.4048 200.562 97.4048H194.984V86.767V76.1291H199.92H204.856V74.6289V73.1287H199.92H194.984V64.4001V55.6716H200.167H205.35V54.035V52.3984H198.563H191.775V76.4018Z" fill="white"/>
</svg>
