<svg width="241" height="166" viewBox="0 0 241 166" fill="none" xmlns="http://www.w3.org/2000/svg">
<g filter="url(#filter0_d_609_4306)">
<path d="M237 9.60001C237 6.23969 237 4.55953 236.346 3.27606C235.771 2.14708 234.853 1.2292 233.724 0.653962C232.44 7.97213e-07 230.76 1.09098e-06 227.4 1.67852e-06L13.6 3.90605e-05C10.2397 3.9648e-05 8.55951 3.99418e-05 7.27603 0.654001C6.14706 1.22924 5.22917 2.14712 4.65393 3.2761C3.99997 4.55957 3.99997 6.23973 3.99997 9.60004L3.99999 112.472C3.99999 115.832 3.99999 117.512 4.65395 118.796C5.22919 119.925 6.14709 120.843 7.27605 121.418C8.55953 122.072 10.2397 122.072 13.6 122.072L202.79 122.072C204.877 122.072 205.92 122.072 206.847 122.382C207.668 122.657 208.419 123.106 209.049 123.698C209.762 124.368 210.256 125.286 211.245 127.124L218.946 141.439C224.254 151.307 226.909 156.241 229.326 156.943C231.409 157.549 233.656 156.983 235.204 155.462C237 153.699 237 148.096 237 136.891L237 9.60001Z" fill="#D9D9D9"/>
<path d="M235.5 9.60001C235.5 7.8951 235.499 6.70662 235.423 5.78136C235.349 4.87361 235.211 4.35208 235.01 3.95704C234.578 3.11031 233.89 2.4219 233.043 1.99047C232.648 1.78919 232.126 1.65093 231.219 1.57676C230.293 1.50117 229.105 1.5 227.4 1.5L13.6 1.50004C11.8951 1.50004 10.7066 1.50121 9.78134 1.5768C8.8736 1.65097 8.35205 1.78923 7.95702 1.99051C7.11029 2.42194 6.42188 3.11036 5.99043 3.95708C5.78915 4.35212 5.6509 4.87365 5.57674 5.7814C5.50113 6.70666 5.49997 7.89513 5.49997 9.60004L5.49999 112.472C5.49999 114.177 5.50115 115.365 5.57676 116.29C5.65091 117.198 5.78917 117.72 5.99045 118.115C6.4219 118.961 7.11031 119.65 7.95704 120.081C8.35207 120.283 8.8736 120.421 9.78136 120.495C10.7066 120.571 11.8951 120.572 13.6 120.572L202.79 120.572C202.874 120.572 202.957 120.572 203.038 120.572C204.884 120.571 206.16 120.57 207.324 120.96C208.349 121.303 209.288 121.865 210.076 122.605C210.97 123.445 211.574 124.569 212.449 126.195C212.487 126.267 212.526 126.339 212.566 126.413L220.267 140.728C222.933 145.685 224.893 149.325 226.485 151.822C227.279 153.068 227.946 153.969 228.524 154.585C229.113 155.213 229.51 155.435 229.744 155.503C231.307 155.957 232.992 155.532 234.153 154.392C234.327 154.221 234.572 153.838 234.793 153.006C235.01 152.19 235.17 151.08 235.28 149.606C235.499 146.654 235.5 142.52 235.5 136.891L235.5 9.60001Z" stroke="url(#paint0_linear_609_4306)" stroke-width="3"/>
</g>
<defs>
<filter id="filter0_d_609_4306" x="0" y="0" width="241" height="165.182" filterUnits="userSpaceOnUse" color-interpolation-filters="sRGB">
<feFlood flood-opacity="0" result="BackgroundImageFix"/>
<feColorMatrix in="SourceAlpha" type="matrix" values="0 0 0 0 0 0 0 0 0 0 0 0 0 0 0 0 0 0 127 0" result="hardAlpha"/>
<feOffset dy="4"/>
<feGaussianBlur stdDeviation="2"/>
<feComposite in2="hardAlpha" operator="out"/>
<feColorMatrix type="matrix" values="0 0 0 0 0 0 0 0 0 0 0 0 0 0 0 0 0 0 0.25 0"/>
<feBlend mode="normal" in2="BackgroundImageFix" result="effect1_dropShadow_609_4306"/>
<feBlend mode="normal" in="SourceGraphic" in2="effect1_dropShadow_609_4306" result="shape"/>
</filter>
<linearGradient id="paint0_linear_609_4306" x1="293.015" y1="-1.67703e-06" x2="4.09375" y2="118.681" gradientUnits="userSpaceOnUse">
<stop stop-color="#BE123C"/>
<stop offset="0.939386" stop-color="white" stop-opacity="0.65"/>
</linearGradient>
</defs>
</svg>
