<svg width="9" height="23" viewBox="0 0 9 23" fill="none" xmlns="http://www.w3.org/2000/svg">
<path opacity="0.9" d="M3.14647 0.702547C1.7047 1.28308 1.00058 2.82704 1.00058 5.50735C1.00058 8.28648 1.49235 9.31167 3.90648 11.4732C5.15825 12.5972 5.81766 13.3507 6.14178 14.0671C6.89061 15.6851 6.86826 19.2054 6.09707 20.4899C5.73943 21.0952 5.21413 21.3545 4.35354 21.3545C3.57118 21.3545 3.18 21.1693 2.69941 20.564C2.24117 19.9959 2.10706 19.4524 2.04 17.9208L1.97294 16.6609H1.3247H0.665283V17.9208C0.665283 21.231 1.83882 22.7256 4.39824 22.7256C5.31472 22.7256 5.47119 22.7009 6.11943 22.318C6.94649 21.8486 7.36002 21.3051 7.72885 20.1811C7.91885 19.5759 7.97473 19.0818 8.01944 17.5008C8.12003 13.783 7.65061 12.7207 4.8006 10.201C3.42589 8.97817 2.78882 8.16296 2.56529 7.3601C2.20764 6.02612 2.34176 3.59284 2.82235 2.81468C3.50412 1.71539 4.77824 1.50541 5.63884 2.34532C6.14178 2.83939 6.36531 3.66695 6.36531 5.01328V6.03847H7.11414H7.85179L7.78473 4.81566C7.60591 1.82655 6.73414 0.640789 4.63295 0.517273C3.95118 0.480217 3.60471 0.529625 3.14647 0.702547Z" fill="white"/>
</svg>
