<svg width="121" height="79" viewBox="0 0 121 79" fill="none" xmlns="http://www.w3.org/2000/svg">
<path fill-rule="evenodd" clip-rule="evenodd" d="M73.9063 6.19381C73.7765 5.34797 73.6468 4.48579 73.5301 3.71059C73.3394 2.44361 73.1837 1.40894 73.1201 1.05747L72.915 0L74.0772 0.528725C75.7864 1.3596 111.03 20.0921 113.97 21.7161C115.303 22.4715 116.67 23.4912 116.91 23.9444C117.183 24.3976 118.277 30.4026 119.337 37.2384C121.012 48.2665 121.183 49.966 120.875 51.7788C120.26 55.4422 118.004 58.6147 115.03 60.0876C113.97 60.5786 107.03 62.0515 95.2029 64.2797L76.9487 67.7166L74.7951 67.1123C73.6328 66.8101 71.992 66.017 71.1374 65.375C68.095 63.0712 67.2746 60.8807 65.8047 51.4767C64.8134 45.094 64.6083 44.2254 64.0613 44.2254C63.4118 44.2254 55.4812 45.7361 55.3445 45.8871C55.3103 45.9249 55.7888 49.4372 56.4725 53.7049C57.2587 58.879 57.6006 61.9382 57.4639 63.0334C56.9853 66.5835 55.2419 69.5671 52.5414 71.4933L44.474 73.8348L41.9102 74.3258C41.418 74.4186 40.8289 74.5254 40.2168 74.6364C39.0859 74.8414 37.8767 75.0607 37.0561 75.2322L25.2626 77.4605C25.0917 77.4605 23.2116 77.8004 21.058 78.2158C19.2361 78.5673 11.8243 79.7893 8.26015 78.2158C3.79381 76.244 3.43892 71.72 3.42312 71.72C3.66241 71.5689 2.83799 67.15 1.64155 59.2567C0.308379 50.7591 -0.136012 46.8691 0.0349075 45.8494C0.240011 44.603 2.29105 42.1859 16.8876 26.0216C26.0147 15.8622 33.6035 7.59122 33.706 7.59122C33.8428 7.59122 34.2872 9.85725 34.6974 12.652L35.4494 17.7128L30.8004 27.9855C26.2881 37.9182 26.1856 38.2582 27.1085 38.0315C27.6213 37.9182 41.7734 35.2368 58.4894 32.1021C75.2395 28.9674 88.9814 26.3237 89.0498 26.2482C89.1523 26.1349 85.9049 22.5092 81.8712 18.166L74.4874 10.2727L73.9063 6.19381ZM49.2597 53.1007C50.3878 60.352 50.8322 64.3175 50.6271 64.5819C50.422 64.7707 41.5341 66.5458 30.8346 68.5474C14.8707 71.5688 11.3156 72.1354 10.9738 71.72C10.5294 71.1913 7.14516 50.0415 7.45281 49.7016C7.58955 49.5505 45.6362 42.1859 47.2087 41.9971C47.448 41.9593 48.3026 46.5669 49.2597 53.1007ZM114.277 52.3075C114.38 52.0054 113.731 46.9446 112.808 41.0152L111.201 30.2515L110.141 30.2893L71.0007 38.5225C71.0007 39.0513 71.7185 44.0743 72.6073 49.7016C74.1114 59.1434 74.2823 59.8987 74.9318 60.012C75.5129 60.0876 108.637 54.0826 113.115 53.0629C113.662 52.9496 114.175 52.6097 114.277 52.3075Z" fill="#BE123C"/>
</svg>
