<svg width="12" height="23" viewBox="0 0 12 23" fill="none" xmlns="http://www.w3.org/2000/svg">
<path d="M3.60316 0.875597C3.5808 0.962059 2.87668 5.75451 2.04962 11.5351C1.21138 17.3033 0.507259 22.1575 0.473729 22.3058L0.417847 22.5898H1.98256C2.84315 22.5898 3.54727 22.5528 3.54727 22.491C3.54727 22.4416 3.70375 21.157 3.88257 19.6254C4.07257 18.1062 4.21787 16.8093 4.21787 16.7599C4.21787 16.7104 4.89963 16.661 5.7267 16.661C7.19082 16.661 7.23553 16.6734 7.29141 16.9328C7.35847 17.2786 8.01788 22.2934 8.01788 22.4663C8.01788 22.5404 8.58789 22.5898 9.5826 22.5898C11.0803 22.5898 11.1473 22.5775 11.1473 22.3428C11.1473 22.1081 8.08494 1.60435 7.962 0.999115C7.90612 0.727377 7.88377 0.727377 5.7714 0.727377C4.17316 0.727377 3.63669 0.764433 3.60316 0.875597ZM5.93905 5.2975C6.01729 6.21152 6.72141 12.2021 6.85553 13.1038L6.92259 13.5731H5.79376C4.8661 13.5731 4.66493 13.5361 4.66493 13.3878C4.66493 13.289 4.83257 11.7698 5.04493 10.0282C5.25728 8.27425 5.49199 6.17447 5.57023 5.37161C5.71552 3.80294 5.81611 3.77824 5.93905 5.2975Z" fill="#BE123C"/>
</svg>
