<svg width="10" height="23" viewBox="0 0 10 23" fill="none" xmlns="http://www.w3.org/2000/svg">
<path d="M3.61002 0.480629C2.35825 0.764717 1.49765 1.48112 0.950005 2.67923C0.380002 3.92675 0.178824 6.27356 0.491767 7.90399C0.815886 9.58381 1.4753 10.5349 3.68825 12.5112C5.73356 14.3269 6.14709 15.1174 6.14709 17.1924C6.14709 18.5635 5.99062 19.1687 5.51003 19.6257C4.82826 20.2927 3.77767 20.0333 3.35296 19.0823C3.17413 18.6623 3.12943 18.3164 3.12943 17.3654V16.1673H1.56471H0V16.9331C0.0223531 21.1573 1.6206 23.0348 5.00708 22.8125C6.97415 22.6766 8.17004 21.7502 8.81828 19.811C9.28769 18.44 9.36593 16.1796 9.03063 14.3763C8.72887 12.7211 7.7118 11.3007 5.45414 9.39854C4.78355 8.83036 4.11296 8.13867 3.91178 7.82988C3.49825 7.16289 3.29708 6.12534 3.40884 5.11251C3.54296 3.75382 3.84472 3.32151 4.63826 3.32151C5.51003 3.32151 5.77826 3.81558 5.89003 5.60657L5.95709 6.77998H7.45474H8.94122V6.12535C8.94122 4.12437 8.51651 2.44454 7.79004 1.61698C6.91827 0.604143 5.19708 0.134783 3.61002 0.480629Z" fill="#BE123C"/>
</svg>
