<svg width="44" height="48" viewBox="0 0 44 48" fill="none" xmlns="http://www.w3.org/2000/svg">
<path d="M27.3691 0.345848C27.4026 0.531124 27.5143 1.29693 27.6261 2.02568L27.8161 3.35966L30.2302 5.94116C31.5491 7.3616 32.6108 8.54736 32.5773 8.58442C32.555 8.60912 28.062 9.47374 22.5855 10.4989C17.1202 11.5241 12.4931 12.4011 12.3254 12.4381C12.0237 12.5122 12.0572 12.4011 13.5325 9.15259L15.0525 5.79294L14.8066 4.13781C14.6725 3.22379 14.5272 2.48269 14.4825 2.48269C14.449 2.48269 11.9678 5.18771 8.98366 8.51031C4.21129 13.7968 3.54069 14.5873 3.47363 14.9949C3.41775 15.3284 3.56305 16.6007 3.99893 19.3798C4.39011 21.9613 4.55776 23.32 4.47952 23.3694C4.42364 23.4188 4.09952 23.4805 3.7754 23.5176C2.52363 23.6782 1.22715 24.6416 0.679503 25.8274C0.00891113 27.2849 0.00891113 27.2478 0.00891113 34.6588C0.00891113 41.9463 0.0200877 42.1439 0.590091 43.4285C1.3948 45.2195 2.78069 45.9359 5.18364 45.8L6.46894 45.7259L7.74307 46.8376C8.44719 47.4551 9.08425 47.9739 9.15131 47.9986C9.22955 48.0233 9.54249 47.7145 9.84426 47.2946C10.1572 46.887 10.5372 46.3682 10.7048 46.1459L11.0178 45.7383L9.90014 44.7872C9.28543 44.2561 8.78249 43.8237 8.78249 43.799C8.78249 43.7867 8.90543 43.4532 9.05072 43.0456C9.53131 41.7363 9.5872 40.7976 9.54249 33.9795L9.50896 27.6183L9.21837 26.7167C9.0619 26.235 8.96131 25.8274 8.99484 25.8274C9.02837 25.8274 9.64308 25.7162 10.3472 25.5803C11.0513 25.4445 11.666 25.3333 11.7219 25.3333C11.7666 25.3333 11.8001 28.977 11.8001 33.4236C11.8001 38.9572 11.8449 41.7116 11.9231 42.1563C12.1131 43.1321 12.4149 43.7867 12.9402 44.429C13.7337 45.3801 14.8402 45.8371 16.3713 45.8371C18.6178 45.8371 20.082 44.8242 20.7637 42.8109C21.0208 42.0698 21.0208 42.0575 21.0543 32.8925L21.0878 23.7276H20.6073H20.1378L20.6408 23.3817C21.5237 22.7518 22.0937 21.776 22.2502 20.615C22.2949 20.2568 22.1831 19.2563 21.9261 17.5641C21.7026 16.1683 21.5461 15.0196 21.5573 15.0073C21.602 14.9579 24.1949 14.4638 24.4073 14.4638C24.5861 14.4638 24.6532 14.7479 24.9773 16.8353C25.4579 19.9109 25.7261 20.6273 26.7208 21.3808C27.0002 21.5907 27.5367 21.8501 27.9167 21.9489L28.6208 22.1466L34.5891 21.0226C38.4562 20.2938 40.725 19.8121 41.0715 19.6515C42.0438 19.1698 42.7815 18.1323 42.9827 16.9341C43.0833 16.3413 43.0274 15.7854 42.4797 12.1788C42.1332 9.9431 41.7756 7.97918 41.6862 7.83096C41.6079 7.68274 41.1609 7.34925 40.725 7.10221C39.7638 6.57109 28.2408 0.44466 27.682 0.172924L27.302 0L27.3691 0.345848ZM40.345 13.4139C40.6468 15.3531 40.8591 17.0083 40.8256 17.1071C40.7921 17.2059 40.6244 17.3171 40.4456 17.3541C38.9815 17.6876 28.1514 19.6515 27.9614 19.6268C27.7491 19.5898 27.6932 19.3427 27.2014 16.2548C26.9108 14.4144 26.6761 12.7716 26.6761 12.5987L26.6649 12.2899L32.9014 11.1042C36.3215 10.4495 39.2832 9.9184 39.4732 9.90604L39.8197 9.89369L40.345 13.4139ZM19.5678 17.3665C19.9367 19.738 20.082 21.0349 20.0149 21.1214C19.9478 21.1831 17.0419 21.7637 13.5437 22.4183C8.32425 23.4064 7.16189 23.5917 7.05012 23.4558C6.90483 23.2829 5.79835 16.366 5.89894 16.2548C5.94365 16.2054 18.3831 13.7968 18.8972 13.7351C18.9755 13.7227 19.2549 15.2296 19.5678 17.3665ZM17.9472 41.3534C17.8019 42.1192 17.4555 42.5639 16.8631 42.7368C16.0025 42.9962 15.1643 42.4774 14.9296 41.5263C14.8625 41.2546 14.8178 37.9938 14.8178 32.9049V24.7404L15.5778 24.6045C15.9913 24.5181 16.7066 24.3946 17.1649 24.3081L18.0031 24.1475L18.0366 32.4355C18.059 38.142 18.0367 40.9088 17.9472 41.3534ZM5.65306 26.7167C5.78718 26.8031 5.99953 27.0749 6.13365 27.3096C6.37953 27.7419 6.37953 27.7542 6.37953 34.6588V41.5757L6.12247 42.0204C5.83188 42.5515 5.34012 42.8109 4.66952 42.7986C4.1107 42.7862 3.68599 42.4898 3.36187 41.8722C3.14952 41.4646 3.13834 41.1928 3.10481 34.9305C3.08246 30.7063 3.11599 28.2483 3.19422 27.9395C3.33952 27.3343 3.69717 26.8278 4.13305 26.6179C4.52423 26.4202 5.29541 26.4696 5.65306 26.7167Z" fill="#BE123C"/>
</svg>
