<svg width="10" height="23" viewBox="0 0 10 23" fill="none" xmlns="http://www.w3.org/2000/svg">
<path opacity="0.9" d="M0.782718 1.06134C0.8386 1.25897 1.66566 4.22337 2.62684 7.65714L4.35921 13.9071V18.1931V22.4668H5.0298H5.68921L5.72274 18.0449L5.76745 13.6353L7.52216 7.39775C8.49452 3.96399 9.31041 1.06134 9.34394 0.937824C9.39982 0.752548 9.32158 0.727846 8.67335 0.727846C7.95805 0.727846 7.94687 0.727846 7.83511 1.1231C7.6451 1.79009 5.63333 9.59635 5.35392 10.7945L5.09686 11.8938L4.90686 11.165C4.80627 10.7574 4.3145 8.8429 3.81156 6.90368C3.31979 4.96447 2.76096 2.79058 2.55979 2.04947L2.20214 0.727846H1.44213H0.682129L0.782718 1.06134Z" fill="white"/>
</svg>
