<svg width="10" height="23" viewBox="0 0 10 23" fill="none" xmlns="http://www.w3.org/2000/svg">
<path d="M0.712036 11.6463V22.5898H2.22087H3.7297V17.6986V12.8073L4.66853 12.8444C5.41735 12.8814 5.65206 12.9432 5.85324 13.1408C6.43442 13.7213 6.45677 13.8449 6.52383 18.205C6.55736 20.453 6.62442 22.3552 6.6803 22.4416C6.73618 22.5404 7.18325 22.5898 8.21149 22.5898H9.66443L9.59738 21.997C9.55267 21.6758 9.48561 19.6625 9.4409 17.5257C9.36267 13.8696 9.35149 13.5978 9.10561 13.0173C8.83737 12.338 8.52443 11.918 8.05501 11.5969L7.75325 11.3869L8.20031 11.0534C9.2062 10.3123 9.65326 8.90419 9.65326 6.40915C9.65326 3.29653 8.94914 1.81433 7.13854 1.07323C6.52383 0.826191 6.22206 0.801487 3.59558 0.752081L0.712036 0.702675V11.6463ZM5.79736 3.79059C6.45677 4.2229 6.57971 4.66756 6.57971 6.65618C6.57971 8.15073 6.54618 8.52129 6.36736 8.91654C6.03206 9.65764 5.62971 9.90467 4.61264 9.96643L3.7297 10.0282V6.71794V3.40769L4.60147 3.49415C5.08206 3.54356 5.60736 3.67943 5.79736 3.79059Z" fill="#BE123C"/>
</svg>
