<svg width="144" height="94" viewBox="0 0 144 94" fill="none" xmlns="http://www.w3.org/2000/svg">
<path fill-rule="evenodd" clip-rule="evenodd" d="M87.9546 7.36985C87.8002 6.36341 87.6458 5.33753 87.5069 4.41513C87.28 2.90759 87.0946 1.67646 87.0189 1.25826L86.7748 0L88.158 0.629112C90.1921 1.61775 132.135 23.9071 135.633 25.8394C137.22 26.7382 138.847 27.9515 139.132 28.4908C139.458 29.0301 140.759 36.1752 142.021 44.309C144.014 57.431 144.217 59.4532 143.851 61.6102C143.119 65.9692 140.434 69.744 136.895 71.4966C135.634 72.0808 127.375 73.8334 113.299 76.4848L91.5753 80.5741L89.0123 79.8551C87.6292 79.4956 85.6764 78.5519 84.6594 77.788C81.0387 75.0467 80.0624 72.4403 78.313 61.2507C77.1333 53.6562 76.8892 52.6226 76.2383 52.6226C75.4653 52.6226 66.0272 54.4201 65.8645 54.5999C65.8238 54.6448 66.3933 58.8241 67.207 63.9021C68.1426 70.0586 68.5495 73.6986 68.3867 75.0018C67.8172 79.226 65.7424 82.7761 62.5286 85.0679L52.9277 87.8541L49.8766 88.4383C49.2908 88.5487 48.5897 88.6758 47.8613 88.8079C46.5155 89.0518 45.0764 89.3127 44.0998 89.5168L30.0646 92.1682C29.8612 92.1682 27.6237 92.5726 25.0608 93.0669C22.8925 93.4851 14.0719 94.9392 9.83026 93.0669C4.51495 90.7207 4.0926 85.3377 4.0738 85.3377C4.35857 85.158 3.37744 79.9001 1.95358 70.508C0.366996 60.3969 -0.161865 55.7683 0.0415428 54.5549C0.285633 53.072 2.72654 50.1959 20.0976 30.9624C30.9596 18.874 39.9909 9.03259 40.113 9.03259C40.2757 9.03259 40.8046 11.7289 41.2927 15.0543L42.1877 21.076L36.655 33.2992C31.285 45.1179 31.163 45.5224 32.2614 45.2527C32.8716 45.1179 49.7139 41.9273 69.6072 38.1974C89.5412 34.4676 105.895 31.3219 105.977 31.232C106.099 31.0972 102.234 26.7832 97.4334 21.6153L88.6462 12.2232L87.9546 7.36985ZM58.6231 63.1831C59.9656 71.8112 60.4945 76.5297 60.2504 76.8443C60.0063 77.069 49.4291 79.181 36.6957 81.5628C17.6974 85.1578 13.4665 85.8321 13.0597 85.3377C12.5308 84.7086 8.50333 59.5431 8.86946 59.1386C9.03219 58.9589 54.3109 50.1959 56.1822 49.9712C56.467 49.9263 57.484 55.4088 58.6231 63.1831ZM136 62.2394C136.122 61.8799 135.349 55.8581 134.25 48.8028L132.338 35.9955L131.077 36.0404L84.4967 45.8369C84.4967 46.4661 85.351 52.4428 86.4087 59.1386C88.1987 70.3732 88.4021 71.2719 89.1751 71.4067C89.8666 71.4966 129.287 64.3515 134.616 63.1381C135.267 63.0033 135.878 62.5989 136 62.2394Z" fill="#BE123C"/>
</svg>
