<svg width="14" height="14" viewBox="0 0 14 14" fill="none" xmlns="http://www.w3.org/2000/svg">
<path d="M7.51913 3.43018H2.98078C1.98328 3.43018 1.16663 4.24683 1.16663 5.24433V11.871C1.16663 12.7168 1.77329 13.0785 2.51412 12.6643L4.80662 11.3868C5.05162 11.2527 5.44829 11.2527 5.68746 11.3868L7.97996 12.6643C8.72079 13.0785 9.32745 12.7168 9.32745 11.871V5.24433C9.33329 4.24683 8.51664 3.43018 7.51913 3.43018Z" stroke="white" stroke-width="0.875" stroke-linecap="round" stroke-linejoin="round"/>
<path d="M9.33329 5.24433V11.871C9.33329 12.7168 8.72663 13.0727 7.98579 12.6643L5.6933 11.3868C5.4483 11.2527 5.05162 11.2527 4.80662 11.3868L2.51412 12.6643C1.77329 13.0727 1.16663 12.7168 1.16663 11.871V5.24433C1.16663 4.24683 1.98328 3.43018 2.98078 3.43018H7.51913C8.51664 3.43018 9.33329 4.24683 9.33329 5.24433Z" stroke="white" stroke-width="0.875" stroke-linecap="round" stroke-linejoin="round"/>
<path opacity="0.4" d="M12.8333 2.98066V9.60734C12.8333 10.4532 12.2266 10.809 11.4858 10.4007L9.33329 9.199V5.244C9.33329 4.2465 8.51663 3.42984 7.51913 3.42984H4.66663V2.98066C4.66663 1.98316 5.48328 1.1665 6.48078 1.1665H11.0191C12.0166 1.1665 12.8333 1.98316 12.8333 2.98066Z" stroke="white" stroke-width="0.875" stroke-linecap="round" stroke-linejoin="round"/>
</svg>
