<svg width="14" height="14" viewBox="0 0 14 14" fill="none" xmlns="http://www.w3.org/2000/svg">
<path opacity="0.34" d="M2.91663 5.83317H4.08329C5.24996 5.83317 5.83329 5.24984 5.83329 4.08317V2.9165C5.83329 1.74984 5.24996 1.1665 4.08329 1.1665H2.91663C1.74996 1.1665 1.16663 1.74984 1.16663 2.9165V4.08317C1.16663 5.24984 1.74996 5.83317 2.91663 5.83317Z" stroke="#BE123C" stroke-width="0.875" stroke-miterlimit="10" stroke-linecap="round" stroke-linejoin="round"/>
<path d="M9.91663 5.83317H11.0833C12.25 5.83317 12.8333 5.24984 12.8333 4.08317V2.9165C12.8333 1.74984 12.25 1.1665 11.0833 1.1665H9.91663C8.74996 1.1665 8.16663 1.74984 8.16663 2.9165V4.08317C8.16663 5.24984 8.74996 5.83317 9.91663 5.83317Z" stroke="#BE123C" stroke-width="0.875" stroke-miterlimit="10" stroke-linecap="round" stroke-linejoin="round"/>
<path opacity="0.34" d="M9.91663 12.8332H11.0833C12.25 12.8332 12.8333 12.2498 12.8333 11.0832V9.9165C12.8333 8.74984 12.25 8.1665 11.0833 8.1665H9.91663C8.74996 8.1665 8.16663 8.74984 8.16663 9.9165V11.0832C8.16663 12.2498 8.74996 12.8332 9.91663 12.8332Z" stroke="#BE123C" stroke-width="0.875" stroke-miterlimit="10" stroke-linecap="round" stroke-linejoin="round"/>
<path d="M2.91663 12.8332H4.08329C5.24996 12.8332 5.83329 12.2498 5.83329 11.0832V9.9165C5.83329 8.74984 5.24996 8.1665 4.08329 8.1665H2.91663C1.74996 8.1665 1.16663 8.74984 1.16663 9.9165V11.0832C1.16663 12.2498 1.74996 12.8332 2.91663 12.8332Z" stroke="#BE123C" stroke-width="0.875" stroke-miterlimit="10" stroke-linecap="round" stroke-linejoin="round"/>
</svg>
