<svg width="14" height="14" viewBox="0 0 14 14" fill="none" xmlns="http://www.w3.org/2000/svg">
<path d="M9.91663 2.9165H4.08329C2.33329 2.9165 1.16663 4.08317 1.16663 5.83317V9.9165C1.16663 11.6665 2.33329 12.8332 4.08329 12.8332H9.91663C11.6666 12.8332 12.8333 11.6665 12.8333 9.9165V5.83317C12.8333 4.08317 11.6666 2.9165 9.91663 2.9165Z" stroke="white" stroke-width="0.875" stroke-linecap="round" stroke-linejoin="round"/>
<path d="M4.08337 1.1665V2.9165" stroke="white" stroke-width="0.875" stroke-linecap="round" stroke-linejoin="round"/>
<path opacity="0.4" d="M4.95833 9.33317C5.76375 9.33317 6.41667 8.68025 6.41667 7.87484C6.41667 7.06942 5.76375 6.4165 4.95833 6.4165C4.15292 6.4165 3.5 7.06942 3.5 7.87484C3.5 8.68025 4.15292 9.33317 4.95833 9.33317Z" stroke="white" stroke-width="0.875" stroke-linecap="round" stroke-linejoin="round"/>
<path opacity="0.4" d="M8.45837 6.4165H10.7917" stroke="white" stroke-width="0.875" stroke-linecap="round" stroke-linejoin="round"/>
<path opacity="0.4" d="M8.45837 8.75H8.75004" stroke="white" stroke-width="0.875" stroke-linecap="round" stroke-linejoin="round"/>
<path opacity="0.4" d="M10.5 8.75H10.7917" stroke="white" stroke-width="0.875" stroke-linecap="round" stroke-linejoin="round"/>
</svg>
