<svg width="14" height="14" viewBox="0 0 14 14" fill="none" xmlns="http://www.w3.org/2000/svg">
<path opacity="0.34" d="M7 8.75C7.9665 8.75 8.75 7.9665 8.75 7C8.75 6.0335 7.9665 5.25 7 5.25C6.0335 5.25 5.25 6.0335 5.25 7C5.25 7.9665 6.0335 8.75 7 8.75Z" stroke="white" stroke-width="0.875" stroke-miterlimit="10" stroke-linecap="round" stroke-linejoin="round"/>
<path d="M1.16663 7.5135V6.48683C1.16663 5.88017 1.66246 5.3785 2.27496 5.3785C3.33079 5.3785 3.76246 4.63183 3.23163 3.716C2.92829 3.191 3.10913 2.5085 3.63996 2.20517L4.64913 1.62767C5.10996 1.3535 5.70496 1.51683 5.97913 1.97767L6.04329 2.0885C6.56829 3.00433 7.43163 3.00433 7.96246 2.0885L8.02663 1.97767C8.30079 1.51683 8.89579 1.3535 9.35663 1.62767L10.3658 2.20517C10.8966 2.5085 11.0775 3.191 10.7741 3.716C10.2433 4.63183 10.675 5.3785 11.7308 5.3785C12.3375 5.3785 12.8391 5.87433 12.8391 6.48683V7.5135C12.8391 8.12017 12.3433 8.62183 11.7308 8.62183C10.675 8.62183 10.2433 9.3685 10.7741 10.2843C11.0775 10.8152 10.8966 11.4918 10.3658 11.7952L9.35663 12.3727C8.89579 12.6468 8.30079 12.4835 8.02663 12.0227L7.96246 11.9118C7.43746 10.996 6.57413 10.996 6.04329 11.9118L5.97913 12.0227C5.70496 12.4835 5.10996 12.6468 4.64913 12.3727L3.63996 11.7952C3.10913 11.4918 2.92829 10.8093 3.23163 10.2843C3.76246 9.3685 3.33079 8.62183 2.27496 8.62183C1.66246 8.62183 1.16663 8.12017 1.16663 7.5135Z" stroke="white" stroke-width="0.875" stroke-miterlimit="10" stroke-linecap="round" stroke-linejoin="round"/>
</svg>
