<svg width="14" height="14" viewBox="0 0 14 14" fill="none" xmlns="http://www.w3.org/2000/svg">
<path opacity="0.4" d="M12.1975 6.48651C12.1975 9.33901 10.1267 12.0107 7.2975 12.7923C7.105 12.8448 6.89499 12.8448 6.70249 12.7923C3.87332 12.0107 1.80249 9.33901 1.80249 6.48651V3.92567C1.80249 3.44734 2.16417 2.90484 2.61333 2.724L5.86249 1.39402C6.59165 1.09652 7.41415 1.09652 8.14332 1.39402L11.3925 2.724C11.8358 2.90484 12.2033 3.44734 12.2033 3.92567L12.1975 6.48651Z" stroke="white" stroke-width="0.875" stroke-linecap="round" stroke-linejoin="round"/>
<path d="M5.85666 1.39402C6.58583 1.09652 7.40833 1.09652 8.1375 1.39402L11.3867 2.724C11.83 2.90484 12.1975 3.44734 12.1975 3.92567V6.48651C12.1975 9.33901 10.1267 12.0107 7.2975 12.7923C7.105 12.8448 6.89499 12.8448 6.70249 12.7923C3.87332 12.0107 1.80249 9.33901 1.80249 6.48651" stroke="white" stroke-width="0.875" stroke-linecap="round" stroke-linejoin="round"/>
</svg>
