<svg width="25" height="25" viewBox="0 0 25 25" fill="none" xmlns="http://www.w3.org/2000/svg">
<path d="M48.5944 30.6027L52.9442 9.47771C53.2582 7.95245 52.2079 6.5 50.7908 6.5H14.6493L13.806 1.94898C13.5958 0.814633 12.6915 0 11.6424 0H2.20833C0.988689 0 0 1.09129 0 2.4375V4.0625C0 5.40871 0.988689 6.5 2.20833 6.5H8.63854L15.1023 41.3801C13.5559 42.3617 12.5139 44.2022 12.5139 46.3125C12.5139 49.4536 14.8209 52 17.6667 52C20.5125 52 22.8195 49.4536 22.8195 46.3125C22.8195 44.7206 22.2262 43.2824 21.2714 42.25H40.5618C39.6071 43.2824 39.0139 44.7206 39.0139 46.3125C39.0139 49.4536 41.3209 52 44.1667 52C47.0125 52 49.3195 49.4536 49.3195 46.3125C49.3195 44.0607 48.1336 42.1147 46.4137 41.1932L46.9214 38.7277C47.2354 37.2024 46.1851 35.75 44.768 35.75H20.0698L19.4676 32.5H46.441C47.4721 32.5 48.3659 31.7125 48.5944 30.6027Z" fill="white"/>
</svg>
