<svg width="25" height="25" viewBox="0 0 25 25" fill="none" xmlns="http://www.w3.org/2000/svg">
<path d="M11.5 12.9375C15.0713 12.9375 17.9688 10.04 17.9688 6.46875C17.9688 2.89746 15.0713 0 11.5 0C7.92871 0 5.03125 2.89746 5.03125 6.46875C5.03125 10.04 7.92871 12.9375 11.5 12.9375ZM17.25 14.375H14.7748C13.7775 14.8332 12.668 15.0938 11.5 15.0938C10.332 15.0938 9.22695 14.8332 8.2252 14.375H5.75C2.57402 14.375 0 16.949 0 20.125V20.8438C0 22.0342 0.96582 23 2.15625 23H20.8438C22.0342 23 23 22.0342 23 20.8438V20.125C23 16.949 20.426 14.375 17.25 14.375Z" fill="white"/>
</svg>
