<svg width="80" height="16" viewBox="0 0 80 16" fill="none" xmlns="http://www.w3.org/2000/svg">
<path d="M14.1891 5.51739L10.2219 4.94083L8.44847 1.34551C8.40003 1.24708 8.32034 1.16739 8.2219 1.11895C7.97503 0.997076 7.67503 1.09864 7.55159 1.34551L5.77815 4.94083L1.81097 5.51739C1.70159 5.53301 1.60159 5.58458 1.52503 5.6627C1.43247 5.75784 1.38146 5.88583 1.38322 6.01855C1.38498 6.15127 1.43936 6.27786 1.5344 6.37051L4.40472 9.16895L3.72659 13.1205C3.71069 13.2124 3.72086 13.307 3.75595 13.3934C3.79105 13.4798 3.84966 13.5547 3.92514 13.6095C4.00062 13.6644 4.08995 13.6969 4.183 13.7036C4.27605 13.7102 4.3691 13.6906 4.45159 13.6471L8.00003 11.7815L11.5485 13.6471C11.6453 13.6986 11.7578 13.7158 11.8657 13.6971C12.1375 13.6502 12.3203 13.3924 12.2735 13.1205L11.5953 9.16895L14.4657 6.37051C14.5438 6.29395 14.5953 6.19395 14.611 6.08458C14.6532 5.81114 14.4625 5.55801 14.1891 5.51739V5.51739Z" fill="#E7C825"/>
<path d="M46.1891 5.51739L42.2219 4.94083L40.4485 1.34551C40.4 1.24708 40.3203 1.16739 40.2219 1.11895C39.975 0.997076 39.675 1.09864 39.5516 1.34551L37.7782 4.94083L33.811 5.51739C33.7016 5.53301 33.6016 5.58458 33.525 5.6627C33.4325 5.75784 33.3815 5.88583 33.3832 6.01855C33.385 6.15127 33.4394 6.27786 33.5344 6.37051L36.4047 9.16895L35.7266 13.1205C35.7107 13.2124 35.7209 13.307 35.756 13.3934C35.791 13.4798 35.8497 13.5547 35.9251 13.6095C36.0006 13.6644 36.0899 13.6969 36.183 13.7036C36.276 13.7102 36.3691 13.6906 36.4516 13.6471L40 11.7815L43.5485 13.6471C43.6453 13.6986 43.7578 13.7158 43.8657 13.6971C44.1375 13.6502 44.3203 13.3924 44.2735 13.1205L43.5953 9.16895L46.4657 6.37051C46.5438 6.29395 46.5953 6.19395 46.611 6.08458C46.6532 5.81114 46.4625 5.55801 46.1891 5.51739V5.51739Z" fill="#E7C825"/>
<path d="M30.1891 5.51739L26.2219 4.94083L24.4485 1.34551C24.4 1.24708 24.3203 1.16739 24.2219 1.11895C23.975 0.997076 23.675 1.09864 23.5516 1.34551L21.7782 4.94083L17.811 5.51739C17.7016 5.53301 17.6016 5.58458 17.525 5.6627C17.4325 5.75784 17.3815 5.88583 17.3832 6.01855C17.385 6.15127 17.4394 6.27786 17.5344 6.37051L20.4047 9.16895L19.7266 13.1205C19.7107 13.2124 19.7209 13.307 19.756 13.3934C19.791 13.4798 19.8497 13.5547 19.9251 13.6095C20.0006 13.6644 20.0899 13.6969 20.183 13.7036C20.276 13.7102 20.3691 13.6906 20.4516 13.6471L24 11.7815L27.5485 13.6471C27.6453 13.6986 27.7578 13.7158 27.8657 13.6971C28.1375 13.6502 28.3203 13.3924 28.2735 13.1205L27.5953 9.16895L30.4657 6.37051C30.5438 6.29395 30.5953 6.19395 30.611 6.08458C30.6532 5.81114 30.4625 5.55801 30.1891 5.51739V5.51739Z" fill="#E7C825"/>
<path d="M62.1891 5.51739L58.2219 4.94083L56.4485 1.34551C56.4 1.24708 56.3203 1.16739 56.2219 1.11895C55.975 0.997076 55.675 1.09864 55.5516 1.34551L53.7782 4.94083L49.811 5.51739C49.7016 5.53301 49.6016 5.58458 49.525 5.6627C49.4325 5.75784 49.3815 5.88583 49.3832 6.01855C49.385 6.15127 49.4394 6.27786 49.5344 6.37051L52.4047 9.16895L51.7266 13.1205C51.7107 13.2124 51.7209 13.307 51.756 13.3934C51.791 13.4798 51.8497 13.5547 51.9251 13.6095C52.0006 13.6644 52.0899 13.6969 52.183 13.7036C52.276 13.7102 52.3691 13.6906 52.4516 13.6471L56 11.7815L59.5485 13.6471C59.6453 13.6986 59.7578 13.7158 59.8657 13.6971C60.1375 13.6502 60.3203 13.3924 60.2735 13.1205L59.5953 9.16895L62.4657 6.37051C62.5438 6.29395 62.5953 6.19395 62.611 6.08458C62.6532 5.81114 62.4625 5.55801 62.1891 5.51739V5.51739Z" fill="#E7C825"/>
<path d="M78.1891 5.51739L74.2219 4.94083L72.4485 1.34551C72.4 1.24708 72.3203 1.16739 72.2219 1.11895C71.975 0.997076 71.675 1.09864 71.5516 1.34551L69.7782 4.94083L65.811 5.51739C65.7016 5.53301 65.6016 5.58458 65.525 5.6627C65.4325 5.75784 65.3815 5.88583 65.3832 6.01855C65.385 6.15127 65.4394 6.27786 65.5344 6.37051L68.4047 9.16895L67.7266 13.1205C67.7107 13.2124 67.7209 13.307 67.756 13.3934C67.791 13.4798 67.8497 13.5547 67.9251 13.6095C68.0006 13.6644 68.0899 13.6969 68.183 13.7036C68.276 13.7102 68.3691 13.6906 68.4516 13.6471L72 11.7815L75.5485 13.6471C75.6453 13.6986 75.7578 13.7158 75.8657 13.6971C76.1375 13.6502 76.3203 13.3924 76.2735 13.1205L75.5953 9.16895L78.4657 6.37051C78.5438 6.29395 78.5953 6.19395 78.611 6.08458C78.6532 5.81114 78.4625 5.55801 78.1891 5.51739V5.51739Z" fill="#E7C825"/>
</svg>
