<svg width="57" height="44" viewBox="0 0 57 44" fill="none" xmlns="http://www.w3.org/2000/svg">
<g clip-path="url(#clip0_250_1649)">
<path d="M10.3623 43.7815V40.8692C10.3623 39.7528 9.67796 39.0247 8.50487 39.0247C7.91833 39.0247 7.28291 39.2189 6.843 39.8499C6.50085 39.3159 6.01206 39.0247 5.27888 39.0247C4.7901 39.0247 4.30131 39.1703 3.91028 39.7042V39.1218H2.88383V43.7815H3.91028V41.2089C3.91028 40.3838 4.35019 39.9955 5.03449 39.9955C5.71879 39.9955 6.06094 40.4323 6.06094 41.2089V43.7815H7.08739V41.2089C7.08739 40.3838 7.57618 39.9955 8.2116 39.9955C8.8959 39.9955 9.23805 40.4323 9.23805 41.2089V43.7815H10.3623ZM25.5635 39.1218H23.9016V37.7142H22.8752V39.1218H21.9465V40.044H22.8752V42.1797C22.8752 43.2475 23.3151 43.8785 24.4882 43.8785C24.9281 43.8785 25.4169 43.7329 25.759 43.5388L25.4657 42.6651C25.1725 42.8592 24.8303 42.9078 24.5859 42.9078C24.0971 42.9078 23.9016 42.6165 23.9016 42.1312V40.044H25.5635V39.1218ZM34.2639 39.0247C33.6773 39.0247 33.2863 39.3159 33.0419 39.7042V39.1218H32.0155V43.7815H33.0419V41.1604C33.0419 40.3838 33.3841 39.9469 34.0195 39.9469C34.215 39.9469 34.4594 39.9955 34.6549 40.044L34.9482 39.0733C34.7527 39.0247 34.4594 39.0247 34.2639 39.0247ZM21.1155 39.5101C20.6268 39.1703 19.9425 39.0247 19.2093 39.0247C18.0362 39.0247 17.2541 39.6072 17.2541 40.5294C17.2541 41.306 17.8407 41.7428 18.8671 41.8885L19.3559 41.937C19.8936 42.0341 20.1868 42.1797 20.1868 42.4224C20.1868 42.7622 19.7958 43.0048 19.1115 43.0048C18.4272 43.0048 17.8896 42.7622 17.5474 42.5195L17.0586 43.2961C17.5963 43.6844 18.3295 43.8785 19.0626 43.8785C20.4312 43.8785 21.2133 43.2475 21.2133 42.3738C21.2133 41.5487 20.5779 41.1119 19.6003 40.9662L19.1115 40.9177C18.6716 40.8692 18.3295 40.7721 18.3295 40.4809C18.3295 40.1411 18.6716 39.9469 19.2093 39.9469C19.7958 39.9469 20.3824 40.1896 20.6756 40.3352L21.1155 39.5101ZM48.3898 39.0247C47.8032 39.0247 47.4122 39.3159 47.1678 39.7042V39.1218H46.1414V43.7815H47.1678V41.1604C47.1678 40.3838 47.51 39.9469 48.1454 39.9469C48.3409 39.9469 48.5853 39.9955 48.7808 40.044L49.0741 39.0733C48.8786 39.0247 48.5853 39.0247 48.3898 39.0247ZM35.2903 41.4516C35.2903 42.8592 36.2679 43.8785 37.7831 43.8785C38.4674 43.8785 38.9562 43.7329 39.445 43.3446L38.9562 42.5195C38.5652 42.8107 38.1742 42.9563 37.7343 42.9563C36.9033 42.9563 36.3168 42.3738 36.3168 41.4516C36.3168 40.5779 36.9033 39.9955 37.7343 39.9469C38.1742 39.9469 38.5652 40.0926 38.9562 40.3838L39.445 39.5586C38.9562 39.1703 38.4674 39.0247 37.7831 39.0247C36.2679 39.0247 35.2903 40.044 35.2903 41.4516ZM44.7728 41.4516V39.1218H43.7463V39.7042C43.4042 39.2674 42.9154 39.0247 42.28 39.0247C40.9602 39.0247 39.9338 40.044 39.9338 41.4516C39.9338 42.8592 40.9602 43.8785 42.28 43.8785C42.9643 43.8785 43.453 43.6358 43.7463 43.199V43.7815H44.7728V41.4516ZM41.0091 41.4516C41.0091 40.6265 41.5468 39.9469 42.4266 39.9469C43.2575 39.9469 43.8441 40.5779 43.8441 41.4516C43.8441 42.2768 43.2575 42.9563 42.4266 42.9563C41.5468 42.9078 41.0091 42.2768 41.0091 41.4516ZM28.7406 39.0247C27.372 39.0247 26.3944 39.9955 26.3944 41.4516C26.3944 42.9078 27.372 43.8785 28.7895 43.8785C29.4738 43.8785 30.1581 43.6844 30.6957 43.2475L30.207 42.5195C29.8159 42.8107 29.3271 43.0048 28.8384 43.0048C28.2029 43.0048 27.5675 42.7136 27.4209 41.8885H30.8913V41.5002C30.9401 39.9955 30.0603 39.0247 28.7406 39.0247ZM28.7406 39.8984C29.376 39.8984 29.8159 40.2867 29.9137 41.0148H27.4698C27.5675 40.3838 28.0074 39.8984 28.7406 39.8984ZM54.2063 41.4516V37.2773H53.1799V39.7042C52.8377 39.2674 52.3489 39.0247 51.7135 39.0247C50.3938 39.0247 49.3673 40.044 49.3673 41.4516C49.3673 42.8592 50.3938 43.8785 51.7135 43.8785C52.3978 43.8785 52.8866 43.6358 53.1799 43.199V43.7815H54.2063V41.4516ZM50.4427 41.4516C50.4427 40.6265 50.9803 39.9469 51.8602 39.9469C52.6911 39.9469 53.2776 40.5779 53.2776 41.4516C53.2776 42.2768 52.6911 42.9563 51.8602 42.9563C50.9803 42.9078 50.4427 42.2768 50.4427 41.4516ZM16.1299 41.4516V39.1218H15.1035V39.7042C14.7613 39.2674 14.2725 39.0247 13.6371 39.0247C12.3174 39.0247 11.2909 40.044 11.2909 41.4516C11.2909 42.8592 12.3174 43.8785 13.6371 43.8785C14.3214 43.8785 14.8102 43.6358 15.1035 43.199V43.7815H16.1299V41.4516ZM12.3174 41.4516C12.3174 40.6265 12.8551 39.9469 13.7349 39.9469C14.5658 39.9469 15.1524 40.5779 15.1524 41.4516C15.1524 42.2768 14.5658 42.9563 13.7349 42.9563C12.8551 42.9078 12.3174 42.2768 12.3174 41.4516Z" fill="white"/>
<path d="M36.1701 3.7373H20.7734V31.2099H36.1701V3.7373Z" fill="#FF5F00"/>
<path d="M21.751 17.4737C21.751 11.8918 24.3904 6.94095 28.4473 3.73744C25.4657 1.40761 21.7021 0 17.5963 0C7.86945 0 0 7.81464 0 17.4737C0 27.1328 7.86945 34.9475 17.5963 34.9475C21.7021 34.9475 25.4657 33.5399 28.4473 31.21C24.3904 28.055 21.751 23.0556 21.751 17.4737Z" fill="#EB001B"/>
<path d="M56.9435 17.4737C56.9435 27.1328 49.0741 34.9475 39.3472 34.9475C35.2414 34.9475 31.4778 33.5398 28.4962 31.21C32.602 28.0065 35.1926 23.0556 35.1926 17.4737C35.1926 11.8918 32.5531 6.94095 28.4962 3.73744C31.4778 1.40761 35.2414 0 39.3472 0C49.0741 0 56.9435 7.86318 56.9435 17.4737Z" fill="#F79E1B"/>
</g>
<defs>
<clipPath id="clip0_250_1649">
<rect width="57" height="44" fill="white"/>
</clipPath>
</defs>
</svg>
