<svg width="98" height="109" viewBox="0 0 98 109" fill="none" xmlns="http://www.w3.org/2000/svg">
<path d="M62.3345 0.785355C62.4109 1.20609 62.6655 2.9451 62.9201 4.59997L63.353 7.62922L68.8531 13.4914C71.8578 16.717 74.2768 19.4096 74.2004 19.4938C74.1495 19.5499 63.9132 21.5133 51.4361 23.8413C38.9845 26.1693 28.4426 28.1608 28.0607 28.2449C27.3732 28.4132 27.4496 28.1608 30.8107 20.784L34.2738 13.1548L33.7136 9.39628C33.408 7.32068 33.077 5.63776 32.9751 5.63776C32.8988 5.63776 27.2459 11.7804 20.4471 19.3255C9.57425 31.3303 8.04644 33.1254 7.89366 34.051C7.76635 34.8083 8.09737 37.6973 9.09044 44.0083C9.98166 49.8704 10.3636 52.9558 10.1854 53.0679C10.0581 53.1801 9.31961 53.3204 8.58117 53.4045C5.72927 53.7692 2.77551 55.957 1.52781 58.6496C0 61.9594 0 61.8752 0 78.7044C0 95.253 0.0254634 95.7018 1.3241 98.6189C3.15746 102.686 6.31493 104.313 11.7896 104.004L14.7179 103.836L17.6207 106.36C19.2249 107.763 20.6763 108.941 20.8291 108.997C21.0073 109.053 21.7203 108.352 22.4078 107.398C23.1208 106.472 23.9865 105.294 24.3685 104.79L25.0815 103.864L22.5351 101.704C21.1346 100.498 19.9888 99.5164 19.9888 99.4603C19.9888 99.4323 20.2689 98.675 20.5999 97.7494C21.6948 94.7762 21.8222 92.6445 21.7203 77.1617L21.6439 62.7167L20.9819 60.6691C20.6254 59.5752 20.3962 58.6496 20.4726 58.6496C20.549 58.6496 21.9495 58.3972 23.5537 58.0886C25.1579 57.7801 26.5584 57.5277 26.6857 57.5277C26.7875 57.5277 26.8639 65.802 26.8639 75.8995C26.8639 88.4653 26.9658 94.7201 27.144 95.7299C27.5769 97.9457 28.2644 99.4323 29.4612 100.891C31.2691 103.051 33.79 104.088 37.2785 104.088C42.3966 104.088 45.7323 101.788 47.2856 97.2164C47.8712 95.5335 47.8712 95.5055 47.9476 74.6934L48.024 53.8814H46.9291H45.8596L47.0055 53.096C49.0171 51.6655 50.3157 49.4497 50.6722 46.8131C50.7741 45.9997 50.5194 43.7278 49.9338 39.8851C49.4245 36.7156 49.068 34.1071 49.0935 34.079C49.1953 33.9669 55.1029 32.8449 55.5867 32.8449C55.9941 32.8449 56.1469 33.49 56.8853 38.2302C57.9802 45.2143 58.5914 46.8412 60.8576 48.5521C61.4942 49.0289 62.7164 49.618 63.5822 49.8424L65.1864 50.2911L78.7838 47.7387C87.5942 46.0838 92.7633 44.99 93.5526 44.6253C95.768 43.5314 97.4485 41.1753 97.9069 38.4546C98.1361 37.1083 98.0087 35.8461 96.761 27.6559C95.9717 22.5791 95.1568 18.1194 94.9531 17.7828C94.7749 17.4462 93.7563 16.6889 92.7633 16.1279C90.5734 14.9219 64.3206 1.00974 63.0474 0.392677L62.1817 0L62.3345 0.785355ZM91.8975 30.4608C92.585 34.8644 93.0688 38.6229 92.9924 38.8473C92.916 39.0717 92.5341 39.3241 92.1267 39.4083C88.791 40.1656 64.1169 44.6253 63.684 44.5692C63.2002 44.4851 63.0729 43.9241 61.9525 36.912C61.2905 32.7327 60.7557 29.0022 60.7557 28.6096L60.7303 27.9084L74.9389 25.2157C82.7307 23.7291 89.4785 22.523 89.9114 22.495L90.7007 22.4669L91.8975 30.4608ZM44.561 39.4363C45.4013 44.8217 45.7323 47.7668 45.5795 47.9631C45.4268 48.1033 38.8063 49.4216 30.8362 50.9082C18.9448 53.1521 16.2966 53.5728 16.042 53.2643C15.7109 52.8716 13.1901 37.1644 13.4192 36.912C13.5211 36.7998 41.8619 31.3303 43.0332 31.19C43.2114 31.162 43.848 34.5839 44.561 39.4363ZM40.8688 93.9067C40.5378 95.6457 39.7484 96.6555 38.3988 97.0482C36.4382 97.6372 34.5284 96.4591 33.9937 94.2994C33.8409 93.6823 33.739 86.2775 33.739 74.7215V56.1813L35.4706 55.8728C36.4127 55.6765 38.0424 55.396 39.0864 55.1996L40.9961 54.835L41.0725 73.6556C41.1234 86.6141 41.0725 92.897 40.8688 93.9067ZM12.859 60.6691C13.1646 60.8655 13.6484 61.4825 13.954 62.0155C14.5142 62.9972 14.5142 63.0252 14.5142 78.7044V94.4116L13.9285 95.4213C13.2664 96.6274 12.1461 97.2164 10.6182 97.1884C9.34508 97.1603 8.37747 96.4872 7.63903 95.0848C7.15522 94.1591 7.12976 93.5421 7.05337 79.3214C7.00244 69.7288 7.07883 64.1471 7.25708 63.4459C7.5881 62.0715 8.40293 60.9216 9.39601 60.4447C10.2872 59.996 12.0442 60.1081 12.859 60.6691Z" fill="#BE123C"/>
</svg>
